<svg width="121" height="119" viewBox="0 0 121 119" fill="none" xmlns="http://www.w3.org/2000/svg">
<path fill-rule="evenodd" clip-rule="evenodd" d="M60.5 0C27.0737 0 0 27.0737 0 60.5C0 87.2712 17.3181 109.883 41.3669 117.899C44.3919 118.429 45.5262 116.614 45.5262 115.026C45.5262 113.589 45.4506 108.824 45.4506 103.757C30.25 106.556 26.3175 100.052 25.1075 96.6488C24.4269 94.9094 21.4775 89.54 18.9062 88.1031C16.7887 86.9688 13.7638 84.1706 18.8306 84.095C23.595 84.0194 26.9981 88.4812 28.1325 90.2962C33.5775 99.4469 42.2744 96.8756 45.7531 95.2875C46.2825 91.355 47.8706 88.7081 49.61 87.1956C36.1488 85.6831 22.0825 80.465 22.0825 57.3237C22.0825 50.7444 24.4269 45.2994 28.2838 41.0644C27.6788 39.5519 25.5612 33.3506 28.8888 25.0319C28.8888 25.0319 33.9556 23.4438 45.5262 31.2331C50.3662 29.8719 55.5088 29.1912 60.6513 29.1912C65.7938 29.1912 70.9363 29.8719 75.7763 31.2331C87.3469 23.3681 92.4137 25.0319 92.4137 25.0319C95.7412 33.3506 93.6237 39.5519 93.0188 41.0644C96.8756 45.2994 99.22 50.6688 99.22 57.3237C99.22 80.5406 85.0781 85.6831 71.6169 87.1956C73.81 89.0863 75.7006 92.7163 75.7006 98.3881C75.7006 106.48 75.625 112.984 75.625 115.026C75.625 116.614 76.7594 118.504 79.7844 117.899C91.7947 113.845 102.231 106.126 109.625 95.8291C117.018 85.5324 120.997 73.1763 121 60.5C121 27.0737 93.9263 0 60.5 0Z" fill="#8752CC"/>
</svg>
