<svg width="56" height="55" viewBox="0 0 56 55" fill="none" xmlns="http://www.w3.org/2000/svg">
<path fill-rule="evenodd" clip-rule="evenodd" d="M28 0C12.53 0 0 12.6175 0 28.1956C0 40.6721 8.015 51.2102 19.145 54.9461C20.545 55.1928 21.07 54.347 21.07 53.6068C21.07 52.9372 21.035 50.7168 21.035 48.3554C14 49.6595 12.18 46.6284 11.62 45.0424C11.305 44.2318 9.94 41.7295 8.75 41.0598C7.77 40.5311 6.37 39.2271 8.715 39.1919C10.92 39.1566 12.495 41.236 13.02 42.0819C15.54 46.3465 19.565 45.1482 21.175 44.408C21.42 42.5753 22.155 41.3418 22.96 40.6369C16.73 39.932 10.22 37.5001 10.22 26.7153C10.22 23.649 11.305 21.1114 13.09 19.1377C12.81 18.4329 11.83 15.5428 13.37 11.6659C13.37 11.6659 15.715 10.9258 21.07 14.556C23.31 13.9216 25.69 13.6044 28.07 13.6044C30.45 13.6044 32.83 13.9216 35.07 14.556C40.425 10.8905 42.77 11.6659 42.77 11.6659C44.31 15.5428 43.33 18.4329 43.05 19.1377C44.835 21.1114 45.92 23.6138 45.92 26.7153C45.92 37.5354 39.375 39.932 33.145 40.6369C34.16 41.518 35.035 43.2097 35.035 45.8531C35.035 49.6242 35 52.6552 35 53.6068C35 54.347 35.525 55.2281 36.925 54.9461C42.4835 53.0565 47.3136 49.4592 50.7354 44.6605C54.1573 39.8617 55.9985 34.1033 56 28.1956C56 12.6175 43.47 0 28 0Z" fill="#8752CC"/>
</svg>
