<svg width="104" height="29" viewBox="0 0 104 29" fill="none" xmlns="http://www.w3.org/2000/svg">
<path d="M20.0476 12.0478H11.3011C11.0754 12.0478 10.8922 12.2312 10.8922 12.4568V16.7332C10.8922 16.9589 11.0754 17.1425 11.3009 17.1425H14.7132V22.4557C14.7132 22.4557 13.947 22.7169 11.8288 22.7169C9.32973 22.7169 5.83862 21.8036 5.83862 14.1271C5.83862 6.44902 9.47395 5.43887 12.8867 5.43887C15.8407 5.43887 17.1135 5.95888 17.9231 6.20953C18.1777 6.28753 18.4131 6.03423 18.4131 5.80836L19.3887 1.67639C19.3887 1.57077 19.3529 1.44361 19.2325 1.35728C18.9036 1.12267 16.8974 0 11.8286 0C5.98975 0 0 2.48422 0 14.4265C0 26.3693 6.8575 28.1489 12.6364 28.1489C17.421 28.1489 20.3235 26.1042 20.3235 26.1042C20.4433 26.0382 20.4561 25.871 20.4561 25.7942V12.4568C20.4561 12.2314 20.2733 12.0478 20.0478 12.0478H20.0476ZM65.1008 1.4948C65.1008 1.2673 64.9204 1.08367 64.6947 1.08367H59.7697C59.716 1.08388 59.6627 1.09469 59.6131 1.11546C59.5635 1.13624 59.5185 1.16658 59.4807 1.20476C59.4428 1.24294 59.4128 1.2882 59.3924 1.33796C59.372 1.38773 59.3616 1.44102 59.3619 1.4948L59.3631 11.0124H51.6866V1.495C51.6866 1.2675 51.5054 1.08387 51.2801 1.08387H46.3552C46.2467 1.08447 46.1429 1.12811 46.0666 1.2052C45.9903 1.2823 45.9478 1.38654 45.9483 1.495V27.2659C45.9483 27.4934 46.1311 27.6782 46.3552 27.6782H51.2799C51.5052 27.6782 51.6862 27.4934 51.6862 27.2659V16.2427H59.3629L59.3495 27.2657C59.3495 27.4932 59.5323 27.678 59.7573 27.678H64.6941C64.9196 27.678 65.0999 27.4932 65.1003 27.2657V1.495L65.1008 1.4948ZM29.3252 4.94041C29.3252 3.16713 27.9033 1.73388 26.1493 1.73388C24.3969 1.73388 22.974 3.16692 22.974 4.94041C22.974 6.71166 24.3969 8.14877 26.1493 8.14877C27.9033 8.14877 29.3252 6.71166 29.3252 4.94041ZM28.9343 21.8428V9.94703C28.9343 9.72116 28.7521 9.53652 28.5269 9.53652H23.6175C23.3923 9.53652 23.191 9.76889 23.191 9.99477V27.038C23.191 27.5389 23.503 27.6878 23.907 27.6878H28.33C28.8155 27.6878 28.9343 27.4495 28.9343 27.0298V21.8428ZM83.9235 9.53672H79.0363C78.8121 9.53672 78.6297 9.72136 78.6297 9.94866V22.5851C78.6297 22.5851 77.3882 23.4934 75.6259 23.4934C73.8638 23.4934 73.3962 22.6937 73.3962 20.9684V9.94886C73.3962 9.72136 73.214 9.53652 72.9897 9.53652H68.0296C67.8058 9.53652 67.6223 9.72136 67.6223 9.94886V21.8028C67.6223 26.9277 70.4789 28.1816 74.4083 28.1816C77.6319 28.1816 80.2309 26.4008 80.2309 26.4008C80.2309 26.4008 80.3548 27.3392 80.4107 27.4505C80.4668 27.5616 80.6126 27.6735 80.7702 27.6735L83.9258 27.6597C84.1496 27.6597 84.333 27.4747 84.333 27.2484L84.3314 9.94866C84.3314 9.72136 84.1486 9.53672 83.9235 9.53672ZM95.1838 23.5032C93.4887 23.4516 92.3388 22.6824 92.3388 22.6824V14.521C92.3388 14.521 93.4733 13.8257 94.8649 13.7014C96.6247 13.5438 98.3206 14.0753 98.3206 18.2737C98.3206 22.7008 97.5552 23.5745 95.1838 23.503V23.5032ZM97.1114 8.9832C94.3357 8.9832 92.4477 10.2217 92.4477 10.2217V1.4948C92.4481 1.44111 92.4378 1.38788 92.4176 1.33815C92.3974 1.28842 92.3676 1.24316 92.3298 1.20498C92.2921 1.16679 92.2472 1.13642 92.1977 1.1156C92.1482 1.09479 92.0951 1.08394 92.0414 1.08367H87.1024C87.0487 1.08391 86.9956 1.09474 86.946 1.11553C86.8965 1.13633 86.8515 1.16669 86.8137 1.20487C86.7759 1.24305 86.746 1.28831 86.7257 1.33806C86.7054 1.3878 86.6951 1.44107 86.6954 1.4948V27.2657C86.6954 27.4932 86.8778 27.678 87.1031 27.678H90.5298C90.6841 27.678 90.8009 27.5988 90.8873 27.4593C90.9724 27.3207 91.0953 26.271 91.0953 26.271C91.0953 26.271 93.1147 28.1848 96.9378 28.1848C101.426 28.1848 104 25.9082 104 17.9646C104 10.021 99.8892 8.983 97.1114 8.983V8.9832ZM43.109 9.49203H39.4148L39.4091 4.61155C39.4091 4.42691 39.314 4.33448 39.1003 4.33448H34.0661C33.8703 4.33448 33.7653 4.42061 33.7653 4.6087V9.6523C33.7653 9.6523 31.2425 10.2613 31.0718 10.3104C30.9867 10.3351 30.912 10.3868 30.8588 10.4576C30.8056 10.5285 30.7769 10.6147 30.7769 10.7033V13.8726C30.7769 14.1005 30.9589 14.2844 31.1842 14.2844H33.7653V21.9089C33.7653 27.572 37.7376 28.1283 40.4182 28.1283C41.6431 28.1283 43.1082 27.7349 43.3501 27.6457C43.4964 27.5919 43.5813 27.4406 43.5813 27.276L43.5853 23.7896C43.5853 23.5623 43.3934 23.3783 43.1771 23.3783C42.9618 23.3783 42.4113 23.4658 41.8442 23.4658C40.0296 23.4658 39.4148 22.622 39.4148 21.53L39.4146 14.2846H43.109C43.1628 14.2843 43.2161 14.2735 43.2657 14.2527C43.3154 14.2319 43.3604 14.2014 43.3982 14.1632C43.4361 14.1249 43.466 14.0795 43.4863 14.0297C43.5066 13.9798 43.5169 13.9264 43.5165 13.8726V9.90295C43.5165 9.67545 43.3343 9.49223 43.109 9.49223V9.49203Z" fill="white"/>
</svg>
