<svg width="197" height="54" viewBox="0 0 197 54" fill="none" xmlns="http://www.w3.org/2000/svg">
<path d="M37.9525 22.8078H21.3942C20.967 22.8078 20.6202 23.155 20.6202 23.5823V31.678C20.6202 32.1052 20.967 32.4528 21.3939 32.4528H27.8537V42.5112C27.8537 42.5112 26.4032 43.0057 22.3933 43.0057C17.6623 43.0057 11.0532 41.2768 11.0532 26.7443C11.0532 12.2087 17.9353 10.2964 24.396 10.2964C29.9883 10.2964 32.3978 11.2808 33.9306 11.7554C34.4124 11.903 34.8581 11.4235 34.8581 10.9959L36.7051 3.1736C36.7051 2.97364 36.6374 2.73292 36.4093 2.56949C35.7868 2.12535 31.9887 0 22.3929 0C11.3393 0 0 4.70292 0 27.3111C0 49.9201 12.982 53.2891 23.9222 53.2891C32.98 53.2891 38.4747 49.4183 38.4747 49.4183C38.7016 49.2933 38.7258 48.9769 38.7258 48.8315V23.5823C38.7258 23.1554 38.3797 22.8078 37.9529 22.8078H37.9525ZM123.243 2.82983C123.243 2.39914 122.902 2.05152 122.475 2.05152H113.151C113.049 2.05192 112.949 2.07237 112.855 2.1117C112.761 2.15104 112.676 2.20848 112.604 2.28075C112.532 2.35302 112.475 2.43871 112.437 2.53292C112.398 2.62713 112.379 2.72802 112.379 2.82983L112.381 20.8478H97.8487V2.83021C97.8487 2.39953 97.5057 2.0519 97.0793 2.0519H87.7557C87.5504 2.05302 87.3539 2.13564 87.2095 2.28159C87.0651 2.42754 86.9845 2.62488 86.9855 2.83021V51.6175C86.9855 52.0482 87.3316 52.3981 87.7557 52.3981H97.0789C97.5054 52.3981 97.848 52.0482 97.848 51.6175V30.7493H112.381L112.355 51.6171C112.355 52.0478 112.702 52.3977 113.128 52.3977H122.473C122.9 52.3977 123.242 52.0478 123.243 51.6171V2.83021L123.243 2.82983ZM55.516 9.35277C55.516 5.99574 52.8242 3.28243 49.5037 3.28243C46.1863 3.28243 43.4926 5.99535 43.4926 9.35277C43.4926 12.706 46.1863 15.4266 49.5037 15.4266C52.8242 15.4266 55.516 12.706 55.516 9.35277ZM54.7761 41.3511V18.8309C54.7761 18.4033 54.4312 18.0537 54.0047 18.0537H44.7108C44.2843 18.0537 43.9033 18.4937 43.9033 18.9213V51.186C43.9033 52.1343 44.4939 52.4162 45.2588 52.4162H53.6321C54.5511 52.4162 54.7761 51.9651 54.7761 51.1707V41.3511ZM158.877 18.0541H149.625C149.201 18.0541 148.855 18.4037 148.855 18.834V42.7562C148.855 42.7562 146.505 44.4758 143.169 44.4758C139.833 44.4758 138.948 42.9619 138.948 39.6956V18.8344C138.948 18.4037 138.603 18.0537 138.178 18.0537H128.788C128.364 18.0537 128.017 18.4037 128.017 18.8344V41.2753C128.017 50.9772 133.425 53.351 140.864 53.351C146.966 53.351 151.887 49.9797 151.887 49.9797C151.887 49.9797 152.121 51.7563 152.227 51.967C152.333 52.1774 152.609 52.3893 152.907 52.3893L158.881 52.3631C159.305 52.3631 159.652 52.0128 159.652 51.5844L159.649 18.834C159.649 18.4037 159.303 18.0541 158.877 18.0541ZM180.194 44.4943C176.985 44.3966 174.808 42.9404 174.808 42.9404V27.49C174.808 27.49 176.956 26.1737 179.59 25.9383C182.922 25.6399 186.132 26.6463 186.132 34.5943C186.132 42.9754 184.684 44.6293 180.194 44.4939V44.4943ZM183.843 17.0063C178.589 17.0063 175.014 19.3508 175.014 19.3508V2.82983C175.015 2.72819 174.996 2.62742 174.957 2.53327C174.919 2.43913 174.863 2.35346 174.791 2.28116C174.72 2.20887 174.635 2.15137 174.541 2.11197C174.447 2.07256 174.347 2.05202 174.245 2.05152H164.895C164.793 2.05197 164.693 2.07247 164.599 2.11184C164.505 2.15121 164.42 2.20867 164.348 2.28096C164.277 2.35324 164.22 2.43892 164.182 2.5331C164.143 2.62728 164.124 2.72811 164.125 2.82983V51.6171C164.125 52.0478 164.47 52.3977 164.896 52.3977H171.383C171.676 52.3977 171.897 52.2478 172.06 51.9836C172.221 51.7213 172.454 49.734 172.454 49.734C172.454 49.734 176.277 53.3572 183.515 53.3572C192.011 53.3572 196.884 49.0472 196.884 34.0091C196.884 18.9709 189.102 17.0059 183.843 17.0059V17.0063ZM81.6104 17.9695H74.6168L74.606 8.7302C74.606 8.38065 74.4261 8.20569 74.0215 8.20569H64.4911C64.1204 8.20569 63.9216 8.36873 63.9216 8.72481V18.2729C63.9216 18.2729 59.1456 19.4258 58.8226 19.5188C58.6615 19.5656 58.52 19.6634 58.4193 19.7975C58.3186 19.9316 58.2642 20.0948 58.2643 20.2625V26.2625C58.2643 26.694 58.6088 27.042 59.0353 27.042H63.9216V41.476C63.9216 52.197 71.4417 53.2502 76.5164 53.2502C78.8352 53.2502 81.6089 52.5054 82.0669 52.3366C82.3437 52.2347 82.5045 51.9482 82.5045 51.6367L82.5122 45.0365C82.5122 44.6062 82.1488 44.2578 81.7392 44.2578C81.3316 44.2578 80.2895 44.4235 79.2159 44.4235C75.7808 44.4235 74.6168 42.8262 74.6168 40.7589L74.6164 27.0423H81.6104C81.7123 27.0419 81.8131 27.0214 81.9071 26.982C82.0011 26.9426 82.0863 26.885 82.158 26.8125C82.2296 26.7401 82.2863 26.6542 82.3247 26.5598C82.3631 26.4654 82.3825 26.3644 82.3818 26.2625V18.7474C82.3818 18.3168 82.0369 17.9699 81.6104 17.9699V17.9695Z" fill="white"/>
</svg>
