<svg width="13" height="15" viewBox="0 0 13 15" fill="none" xmlns="http://www.w3.org/2000/svg">
<path fill-rule="evenodd" clip-rule="evenodd" d="M0 2.14286C0 1.57454 0.228273 1.02949 0.634602 0.627628C1.04093 0.225765 1.59203 0 2.16667 0H7.90075C8.18804 6.06829e-05 8.46355 0.112983 8.66667 0.313929L12.6826 4.28571C12.8858 4.4866 12.9999 4.75908 13 5.04321V12.8571C13 13.4255 12.7717 13.9705 12.3654 14.3724C11.9591 14.7742 11.408 15 10.8333 15H2.16667C1.59203 15 1.04093 14.7742 0.634602 14.3724C0.228273 13.9705 0 13.4255 0 12.8571V2.14286ZM7.58333 4.28571V1.07143L11.9167 5.35714H8.66667C8.37935 5.35714 8.1038 5.24426 7.90063 5.04333C7.69747 4.8424 7.58333 4.56987 7.58333 4.28571ZM5.03317 7.12071C5.08353 7.07091 5.14332 7.03139 5.20912 7.00444C5.27492 6.97748 5.34544 6.96361 5.41667 6.96361C5.48789 6.96361 5.55841 6.97748 5.62422 7.00444C5.69002 7.03139 5.7498 7.07091 5.80017 7.12071C5.85053 7.17052 5.89048 7.22965 5.91773 7.29473C5.94499 7.35981 5.95902 7.42956 5.95902 7.5C5.95902 7.57044 5.94499 7.64019 5.91773 7.70527C5.89048 7.77035 5.85053 7.82948 5.80017 7.87929L4.01592 9.64286L5.80017 11.4064C5.90188 11.507 5.95902 11.6435 5.95902 11.7857C5.95902 11.928 5.90188 12.0644 5.80017 12.165C5.69846 12.2656 5.56051 12.3221 5.41667 12.3221C5.27283 12.3221 5.13488 12.2656 5.03317 12.165L2.8665 10.0221C2.81606 9.97238 2.77603 9.91326 2.74873 9.84818C2.72142 9.78309 2.70737 9.71332 2.70737 9.64286C2.70737 9.57239 2.72142 9.50262 2.74873 9.43754C2.77603 9.37245 2.81606 9.31333 2.8665 9.26357L5.03317 7.12071ZM10.1335 9.26357L7.96683 7.12071C7.91647 7.07091 7.85668 7.03139 7.79088 7.00444C7.72508 6.97748 7.65456 6.96361 7.58333 6.96361C7.51211 6.96361 7.44159 6.97748 7.37578 7.00444C7.30998 7.03139 7.2502 7.07091 7.19983 7.12071C7.14947 7.17052 7.10952 7.22965 7.08227 7.29473C7.05501 7.35981 7.04098 7.42956 7.04098 7.5C7.04098 7.57044 7.05501 7.64019 7.08227 7.70527C7.10952 7.77035 7.14947 7.82948 7.19983 7.87929L8.98408 9.64286L7.19983 11.4064C7.09812 11.507 7.04098 11.6435 7.04098 11.7857C7.04098 11.928 7.09812 12.0644 7.19983 12.165C7.30154 12.2656 7.43949 12.3221 7.58333 12.3221C7.72717 12.3221 7.86512 12.2656 7.96683 12.165L10.1335 10.0221C10.1839 9.97238 10.224 9.91326 10.2513 9.84818C10.2786 9.78309 10.2926 9.71332 10.2926 9.64286C10.2926 9.57239 10.2786 9.50262 10.2513 9.43754C10.224 9.37245 10.1839 9.31333 10.1335 9.26357Z" fill="#8752CC"/>
</svg>
