<svg width="16" height="16" viewBox="0 0 16 16" fill="none" xmlns="http://www.w3.org/2000/svg">
<path d="M15.4602 5.88426C15.4131 5.74541 15.3263 5.6234 15.2106 5.53331C15.095 5.44321 14.9554 5.38896 14.8092 5.37726L10.5335 5.03751L8.68325 0.941761C8.62432 0.809845 8.52848 0.697802 8.40728 0.619154C8.28609 0.540506 8.14472 0.498615 8.00024 0.498535C7.85576 0.498456 7.71435 0.540192 7.59307 0.618707C7.47178 0.697222 7.37582 0.80916 7.31675 0.941011L5.4665 5.03751L1.19075 5.37726C1.04709 5.38864 0.90975 5.44117 0.795163 5.52856C0.680576 5.61595 0.593592 5.7345 0.544617 5.87003C0.495642 6.00556 0.48675 6.15234 0.519006 6.29279C0.551261 6.43324 0.623297 6.56143 0.726497 6.66201L3.88625 9.74226L2.76875 14.5813C2.73481 14.7277 2.74569 14.881 2.79996 15.0212C2.85423 15.1615 2.94939 15.2821 3.0731 15.3676C3.1968 15.453 3.34334 15.4994 3.49368 15.5005C3.64403 15.5016 3.79126 15.4576 3.91625 15.374L8 12.6515L12.0837 15.374C12.2115 15.4588 12.3622 15.5025 12.5155 15.4991C12.6688 15.4958 12.8174 15.4455 12.9413 15.3552C13.0652 15.2649 13.1585 15.1387 13.2086 14.9938C13.2587 14.8489 13.2632 14.6921 13.2215 14.5445L11.8497 9.74451L15.2517 6.68301C15.4745 6.48201 15.5562 6.16851 15.4602 5.88426Z" fill="#8752CC"/>
</svg>
